<mxfile host="app.diagrams.net" modified="2024-05-16T07:10:50.687Z" agent="Mozilla/5.0 (Windows NT 10.0; Win64; x64) AppleWebKit/537.36 (KHTML, like Gecko) Chrome/124.0.0.0 Safari/537.36 Edg/124.0.0.0" etag="rXEEMeqa-b4xOFDWbAd7" version="24.4.0" type="device">
  <diagram name="Page-1" id="10a91c8b-09ff-31b1-d368-03940ed4cc9e">
    <mxGraphModel dx="1386" dy="797" grid="1" gridSize="10" guides="1" tooltips="1" connect="1" arrows="1" fold="1" page="1" pageScale="1" pageWidth="1100" pageHeight="850" background="none" math="0" shadow="0">
      <root>
        <mxCell id="0" />
        <mxCell id="1" parent="0" />
        <mxCell id="8ASr87ASi0aEGd6A7UGH-1" value="0, 13" style="rounded=1;whiteSpace=wrap;html=1;" parent="1" vertex="1">
          <mxGeometry x="570" y="10" width="60" height="40" as="geometry" />
        </mxCell>
        <mxCell id="8ASr87ASi0aEGd6A7UGH-2" value="10, 3" style="rounded=1;whiteSpace=wrap;html=1;fillColor=#dae8fc;strokeColor=#6c8ebf;" parent="1" vertex="1">
          <mxGeometry x="10" y="70" width="60" height="40" as="geometry" />
        </mxCell>
        <mxCell id="8ASr87ASi0aEGd6A7UGH-3" value="1, 2" style="rounded=1;whiteSpace=wrap;html=1;fillColor=#dae8fc;strokeColor=#6c8ebf;" parent="1" vertex="1">
          <mxGeometry x="10" y="130" width="60" height="40" as="geometry" />
        </mxCell>
        <mxCell id="8ASr87ASi0aEGd6A7UGH-4" value="1, 1" style="rounded=1;whiteSpace=wrap;html=1;fillColor=#dae8fc;strokeColor=#6c8ebf;" parent="1" vertex="1">
          <mxGeometry x="10" y="180" width="60" height="40" as="geometry" />
        </mxCell>
        <mxCell id="8ASr87ASi0aEGd6A7UGH-5" value="1, 0" style="rounded=1;whiteSpace=wrap;html=1;fillColor=#dae8fc;strokeColor=#6c8ebf;" parent="1" vertex="1">
          <mxGeometry x="10" y="240" width="60" height="40" as="geometry" />
        </mxCell>
        <mxCell id="8ASr87ASi0aEGd6A7UGH-6" value="8, 5" style="rounded=1;whiteSpace=wrap;html=1;fillColor=#ffe6cc;strokeColor=#d79b00;" parent="1" vertex="1">
          <mxGeometry x="130" y="80" width="60" height="40" as="geometry" />
        </mxCell>
        <mxCell id="8ASr87ASi0aEGd6A7UGH-7" value="5, 8" style="rounded=1;whiteSpace=wrap;html=1;" parent="1" vertex="1">
          <mxGeometry x="270" y="110" width="60" height="40" as="geometry" />
        </mxCell>
        <mxCell id="8ASr87ASi0aEGd6A7UGH-8" value="1, 12" style="rounded=1;whiteSpace=wrap;html=1;" parent="1" vertex="1">
          <mxGeometry x="570" y="90" width="60" height="40" as="geometry" />
        </mxCell>
        <mxCell id="8ASr87ASi0aEGd6A7UGH-9" value="5, 0" style="rounded=1;whiteSpace=wrap;html=1;fillColor=#ffe6cc;strokeColor=#d79b00;" parent="1" vertex="1">
          <mxGeometry x="80" y="150" width="60" height="40" as="geometry" />
        </mxCell>
        <mxCell id="8ASr87ASi0aEGd6A7UGH-10" value="" style="endArrow=none;html=1;rounded=0;entryX=0.5;entryY=1;entryDx=0;entryDy=0;exitX=0.5;exitY=0;exitDx=0;exitDy=0;" parent="1" source="8ASr87ASi0aEGd6A7UGH-2" target="8ASr87ASi0aEGd6A7UGH-1" edge="1">
          <mxGeometry width="50" height="50" relative="1" as="geometry">
            <mxPoint x="490" y="80" as="sourcePoint" />
            <mxPoint x="540" y="30" as="targetPoint" />
          </mxGeometry>
        </mxCell>
        <mxCell id="8ASr87ASi0aEGd6A7UGH-11" value="" style="endArrow=none;html=1;rounded=0;entryX=0.5;entryY=1;entryDx=0;entryDy=0;exitX=0.5;exitY=0;exitDx=0;exitDy=0;" parent="1" source="8ASr87ASi0aEGd6A7UGH-3" target="8ASr87ASi0aEGd6A7UGH-2" edge="1">
          <mxGeometry width="50" height="50" relative="1" as="geometry">
            <mxPoint x="520" y="310" as="sourcePoint" />
            <mxPoint x="570" y="260" as="targetPoint" />
          </mxGeometry>
        </mxCell>
        <mxCell id="8ASr87ASi0aEGd6A7UGH-12" value="" style="endArrow=none;html=1;rounded=0;entryX=0.5;entryY=1;entryDx=0;entryDy=0;exitX=0.5;exitY=0;exitDx=0;exitDy=0;" parent="1" source="8ASr87ASi0aEGd6A7UGH-4" target="8ASr87ASi0aEGd6A7UGH-3" edge="1">
          <mxGeometry width="50" height="50" relative="1" as="geometry">
            <mxPoint x="300" y="280" as="sourcePoint" />
            <mxPoint x="350" y="230" as="targetPoint" />
          </mxGeometry>
        </mxCell>
        <mxCell id="8ASr87ASi0aEGd6A7UGH-13" value="" style="endArrow=none;html=1;rounded=0;entryX=0.5;entryY=1;entryDx=0;entryDy=0;exitX=0.5;exitY=0;exitDx=0;exitDy=0;" parent="1" source="8ASr87ASi0aEGd6A7UGH-5" target="8ASr87ASi0aEGd6A7UGH-4" edge="1">
          <mxGeometry width="50" height="50" relative="1" as="geometry">
            <mxPoint x="300" y="280" as="sourcePoint" />
            <mxPoint x="350" y="230" as="targetPoint" />
          </mxGeometry>
        </mxCell>
        <mxCell id="8ASr87ASi0aEGd6A7UGH-14" value="" style="endArrow=none;html=1;rounded=0;entryX=0.5;entryY=1;entryDx=0;entryDy=0;exitX=0.5;exitY=0;exitDx=0;exitDy=0;" parent="1" source="8ASr87ASi0aEGd6A7UGH-6" target="8ASr87ASi0aEGd6A7UGH-1" edge="1">
          <mxGeometry width="50" height="50" relative="1" as="geometry">
            <mxPoint x="520" y="310" as="sourcePoint" />
            <mxPoint x="570" y="260" as="targetPoint" />
          </mxGeometry>
        </mxCell>
        <mxCell id="8ASr87ASi0aEGd6A7UGH-15" value="" style="endArrow=none;html=1;rounded=0;entryX=0.5;entryY=1;entryDx=0;entryDy=0;exitX=0.5;exitY=0;exitDx=0;exitDy=0;" parent="1" source="8ASr87ASi0aEGd6A7UGH-7" target="8ASr87ASi0aEGd6A7UGH-1" edge="1">
          <mxGeometry width="50" height="50" relative="1" as="geometry">
            <mxPoint x="520" y="310" as="sourcePoint" />
            <mxPoint x="570" y="260" as="targetPoint" />
          </mxGeometry>
        </mxCell>
        <mxCell id="8ASr87ASi0aEGd6A7UGH-16" value="" style="endArrow=none;html=1;rounded=0;entryX=0.5;entryY=1;entryDx=0;entryDy=0;exitX=0.5;exitY=0;exitDx=0;exitDy=0;" parent="1" source="8ASr87ASi0aEGd6A7UGH-8" target="8ASr87ASi0aEGd6A7UGH-1" edge="1">
          <mxGeometry width="50" height="50" relative="1" as="geometry">
            <mxPoint x="520" y="310" as="sourcePoint" />
            <mxPoint x="570" y="260" as="targetPoint" />
          </mxGeometry>
        </mxCell>
        <mxCell id="8ASr87ASi0aEGd6A7UGH-17" value="" style="endArrow=none;html=1;rounded=0;entryX=0.5;entryY=1;entryDx=0;entryDy=0;exitX=0.5;exitY=0;exitDx=0;exitDy=0;" parent="1" source="8ASr87ASi0aEGd6A7UGH-9" target="8ASr87ASi0aEGd6A7UGH-6" edge="1">
          <mxGeometry width="50" height="50" relative="1" as="geometry">
            <mxPoint x="340" y="310" as="sourcePoint" />
            <mxPoint x="390" y="260" as="targetPoint" />
          </mxGeometry>
        </mxCell>
        <mxCell id="8ASr87ASi0aEGd6A7UGH-18" value="" style="endArrow=none;html=1;rounded=0;entryX=0.5;entryY=1;entryDx=0;entryDy=0;exitX=0.5;exitY=0;exitDx=0;exitDy=0;" parent="1" source="8ASr87ASi0aEGd6A7UGH-19" target="8ASr87ASi0aEGd6A7UGH-6" edge="1">
          <mxGeometry width="50" height="50" relative="1" as="geometry">
            <mxPoint x="380" y="170" as="sourcePoint" />
            <mxPoint x="390" y="260" as="targetPoint" />
          </mxGeometry>
        </mxCell>
        <mxCell id="8ASr87ASi0aEGd6A7UGH-19" value="1, 4" style="rounded=1;whiteSpace=wrap;html=1;fillColor=#ffe6cc;strokeColor=#d79b00;" parent="1" vertex="1">
          <mxGeometry x="160" y="150" width="60" height="40" as="geometry" />
        </mxCell>
        <mxCell id="8ASr87ASi0aEGd6A7UGH-20" value="1, 3" style="rounded=1;whiteSpace=wrap;html=1;fillColor=#dae8fc;strokeColor=#6c8ebf;" parent="1" vertex="1">
          <mxGeometry x="160" y="210" width="60" height="40" as="geometry" />
        </mxCell>
        <mxCell id="8ASr87ASi0aEGd6A7UGH-21" value="" style="endArrow=none;html=1;rounded=0;entryX=0.5;entryY=1;entryDx=0;entryDy=0;exitX=0.5;exitY=0;exitDx=0;exitDy=0;" parent="1" source="8ASr87ASi0aEGd6A7UGH-20" target="8ASr87ASi0aEGd6A7UGH-19" edge="1">
          <mxGeometry width="50" height="50" relative="1" as="geometry">
            <mxPoint x="340" y="310" as="sourcePoint" />
            <mxPoint x="380" y="210" as="targetPoint" />
          </mxGeometry>
        </mxCell>
        <mxCell id="8ASr87ASi0aEGd6A7UGH-22" value="1, 2" style="rounded=1;whiteSpace=wrap;html=1;fillColor=#dae8fc;strokeColor=#6c8ebf;" parent="1" vertex="1">
          <mxGeometry x="130" y="260" width="60" height="40" as="geometry" />
        </mxCell>
        <mxCell id="8ASr87ASi0aEGd6A7UGH-23" value="" style="endArrow=none;html=1;rounded=0;entryX=0.5;entryY=1;entryDx=0;entryDy=0;exitX=0.5;exitY=0;exitDx=0;exitDy=0;" parent="1" source="8ASr87ASi0aEGd6A7UGH-22" target="8ASr87ASi0aEGd6A7UGH-20" edge="1">
          <mxGeometry width="50" height="50" relative="1" as="geometry">
            <mxPoint x="340" y="310" as="sourcePoint" />
            <mxPoint x="390" y="260" as="targetPoint" />
          </mxGeometry>
        </mxCell>
        <mxCell id="8ASr87ASi0aEGd6A7UGH-24" value="1, 1" style="rounded=1;whiteSpace=wrap;html=1;fillColor=#dae8fc;strokeColor=#6c8ebf;" parent="1" vertex="1">
          <mxGeometry x="80" y="320" width="60" height="40" as="geometry" />
        </mxCell>
        <mxCell id="8ASr87ASi0aEGd6A7UGH-25" value="1, 0" style="rounded=1;whiteSpace=wrap;html=1;fillColor=#dae8fc;strokeColor=#6c8ebf;" parent="1" vertex="1">
          <mxGeometry x="30" y="377.5" width="60" height="40" as="geometry" />
        </mxCell>
        <mxCell id="8ASr87ASi0aEGd6A7UGH-26" value="" style="endArrow=none;html=1;rounded=0;entryX=0.5;entryY=1;entryDx=0;entryDy=0;exitX=0.5;exitY=0;exitDx=0;exitDy=0;" parent="1" source="8ASr87ASi0aEGd6A7UGH-25" target="8ASr87ASi0aEGd6A7UGH-24" edge="1">
          <mxGeometry width="50" height="50" relative="1" as="geometry">
            <mxPoint x="370" y="450" as="sourcePoint" />
            <mxPoint x="420" y="400" as="targetPoint" />
          </mxGeometry>
        </mxCell>
        <mxCell id="8ASr87ASi0aEGd6A7UGH-27" value="" style="endArrow=none;html=1;rounded=0;entryX=0.5;entryY=1;entryDx=0;entryDy=0;exitX=0.5;exitY=0;exitDx=0;exitDy=0;" parent="1" source="8ASr87ASi0aEGd6A7UGH-24" target="8ASr87ASi0aEGd6A7UGH-22" edge="1">
          <mxGeometry width="50" height="50" relative="1" as="geometry">
            <mxPoint x="340" y="310" as="sourcePoint" />
            <mxPoint x="390" y="260" as="targetPoint" />
          </mxGeometry>
        </mxCell>
        <mxCell id="8ASr87ASi0aEGd6A7UGH-28" value="5, 3" style="rounded=1;whiteSpace=wrap;html=1;fillColor=#dae8fc;strokeColor=#6c8ebf;" parent="1" vertex="1">
          <mxGeometry x="240" y="170" width="60" height="40" as="geometry" />
        </mxCell>
        <mxCell id="8ASr87ASi0aEGd6A7UGH-29" value="" style="endArrow=none;html=1;rounded=0;entryX=0.5;entryY=1;entryDx=0;entryDy=0;exitX=0.5;exitY=0;exitDx=0;exitDy=0;" parent="1" source="8ASr87ASi0aEGd6A7UGH-28" target="8ASr87ASi0aEGd6A7UGH-7" edge="1">
          <mxGeometry width="50" height="50" relative="1" as="geometry">
            <mxPoint x="430" y="320" as="sourcePoint" />
            <mxPoint x="480" y="270" as="targetPoint" />
          </mxGeometry>
        </mxCell>
        <mxCell id="8ASr87ASi0aEGd6A7UGH-30" value="1, 7" style="rounded=1;whiteSpace=wrap;html=1;" parent="1" vertex="1">
          <mxGeometry x="320" y="170" width="60" height="40" as="geometry" />
        </mxCell>
        <mxCell id="8ASr87ASi0aEGd6A7UGH-31" value="" style="endArrow=none;html=1;rounded=0;entryX=0.5;entryY=1;entryDx=0;entryDy=0;exitX=0.5;exitY=0;exitDx=0;exitDy=0;" parent="1" source="8ASr87ASi0aEGd6A7UGH-30" target="8ASr87ASi0aEGd6A7UGH-7" edge="1">
          <mxGeometry width="50" height="50" relative="1" as="geometry">
            <mxPoint x="430" y="320" as="sourcePoint" />
            <mxPoint x="480" y="270" as="targetPoint" />
          </mxGeometry>
        </mxCell>
        <mxCell id="8ASr87ASi0aEGd6A7UGH-32" value="1, 2" style="rounded=1;whiteSpace=wrap;html=1;fillColor=#dae8fc;strokeColor=#6c8ebf;" parent="1" vertex="1">
          <mxGeometry x="230" y="230" width="60" height="40" as="geometry" />
        </mxCell>
        <mxCell id="8ASr87ASi0aEGd6A7UGH-33" value="1, 1" style="rounded=1;whiteSpace=wrap;html=1;fillColor=#dae8fc;strokeColor=#6c8ebf;" parent="1" vertex="1">
          <mxGeometry x="210" y="282.5" width="60" height="40" as="geometry" />
        </mxCell>
        <mxCell id="8ASr87ASi0aEGd6A7UGH-34" value="1, 0" style="rounded=1;whiteSpace=wrap;html=1;fillColor=#dae8fc;strokeColor=#6c8ebf;" parent="1" vertex="1">
          <mxGeometry x="170" y="342.5" width="60" height="40" as="geometry" />
        </mxCell>
        <mxCell id="8ASr87ASi0aEGd6A7UGH-35" value="" style="endArrow=none;html=1;rounded=0;entryX=0.5;entryY=1;entryDx=0;entryDy=0;exitX=0.5;exitY=0;exitDx=0;exitDy=0;" parent="1" source="8ASr87ASi0aEGd6A7UGH-33" target="8ASr87ASi0aEGd6A7UGH-32" edge="1">
          <mxGeometry width="50" height="50" relative="1" as="geometry">
            <mxPoint x="560" y="400" as="sourcePoint" />
            <mxPoint x="610" y="350" as="targetPoint" />
          </mxGeometry>
        </mxCell>
        <mxCell id="8ASr87ASi0aEGd6A7UGH-36" value="" style="endArrow=none;html=1;rounded=0;entryX=0.5;entryY=1;entryDx=0;entryDy=0;exitX=0.5;exitY=0;exitDx=0;exitDy=0;" parent="1" source="8ASr87ASi0aEGd6A7UGH-34" target="8ASr87ASi0aEGd6A7UGH-33" edge="1">
          <mxGeometry width="50" height="50" relative="1" as="geometry">
            <mxPoint x="560" y="400" as="sourcePoint" />
            <mxPoint x="610" y="350" as="targetPoint" />
          </mxGeometry>
        </mxCell>
        <mxCell id="8ASr87ASi0aEGd6A7UGH-37" value="" style="endArrow=none;html=1;rounded=0;entryX=0.5;entryY=1;entryDx=0;entryDy=0;exitX=0.5;exitY=0;exitDx=0;exitDy=0;" parent="1" source="8ASr87ASi0aEGd6A7UGH-32" target="8ASr87ASi0aEGd6A7UGH-28" edge="1">
          <mxGeometry width="50" height="50" relative="1" as="geometry">
            <mxPoint x="520" y="310" as="sourcePoint" />
            <mxPoint x="570" y="260" as="targetPoint" />
          </mxGeometry>
        </mxCell>
        <mxCell id="8ASr87ASi0aEGd6A7UGH-38" value="5, 2" style="rounded=1;whiteSpace=wrap;html=1;" parent="1" vertex="1">
          <mxGeometry x="310" y="230" width="60" height="40" as="geometry" />
        </mxCell>
        <mxCell id="8ASr87ASi0aEGd6A7UGH-39" value="1, 6" style="rounded=1;whiteSpace=wrap;html=1;" parent="1" vertex="1">
          <mxGeometry x="380" y="230" width="60" height="40" as="geometry" />
        </mxCell>
        <mxCell id="8ASr87ASi0aEGd6A7UGH-40" value="" style="endArrow=none;html=1;rounded=0;entryX=0.5;entryY=1;entryDx=0;entryDy=0;exitX=0.5;exitY=0;exitDx=0;exitDy=0;" parent="1" source="8ASr87ASi0aEGd6A7UGH-38" target="8ASr87ASi0aEGd6A7UGH-30" edge="1">
          <mxGeometry width="50" height="50" relative="1" as="geometry">
            <mxPoint x="520" y="310" as="sourcePoint" />
            <mxPoint x="570" y="260" as="targetPoint" />
          </mxGeometry>
        </mxCell>
        <mxCell id="8ASr87ASi0aEGd6A7UGH-41" value="1, 1" style="rounded=1;whiteSpace=wrap;html=1;fillColor=#e1d5e7;strokeColor=#9673a6;" parent="1" vertex="1">
          <mxGeometry x="290" y="282.5" width="60" height="40" as="geometry" />
        </mxCell>
        <mxCell id="8ASr87ASi0aEGd6A7UGH-42" value="1, 0" style="rounded=1;whiteSpace=wrap;html=1;fillColor=#e1d5e7;strokeColor=#9673a6;" parent="1" vertex="1">
          <mxGeometry x="260" y="352.5" width="60" height="40" as="geometry" />
        </mxCell>
        <mxCell id="8ASr87ASi0aEGd6A7UGH-43" value="" style="endArrow=none;html=1;rounded=0;entryX=0.5;entryY=1;entryDx=0;entryDy=0;exitX=0.5;exitY=0;exitDx=0;exitDy=0;" parent="1" source="8ASr87ASi0aEGd6A7UGH-41" target="8ASr87ASi0aEGd6A7UGH-38" edge="1">
          <mxGeometry width="50" height="50" relative="1" as="geometry">
            <mxPoint x="670" y="410" as="sourcePoint" />
            <mxPoint x="550" y="310" as="targetPoint" />
          </mxGeometry>
        </mxCell>
        <mxCell id="8ASr87ASi0aEGd6A7UGH-44" value="" style="endArrow=none;html=1;rounded=0;entryX=0.5;entryY=1;entryDx=0;entryDy=0;exitX=0.5;exitY=0;exitDx=0;exitDy=0;" parent="1" source="8ASr87ASi0aEGd6A7UGH-42" target="8ASr87ASi0aEGd6A7UGH-41" edge="1">
          <mxGeometry width="50" height="50" relative="1" as="geometry">
            <mxPoint x="670" y="410" as="sourcePoint" />
            <mxPoint x="720" y="360" as="targetPoint" />
          </mxGeometry>
        </mxCell>
        <mxCell id="8ASr87ASi0aEGd6A7UGH-45" value="" style="endArrow=none;html=1;rounded=0;exitX=0.5;exitY=0;exitDx=0;exitDy=0;entryX=0.5;entryY=1;entryDx=0;entryDy=0;" parent="1" source="8ASr87ASi0aEGd6A7UGH-39" target="8ASr87ASi0aEGd6A7UGH-30" edge="1">
          <mxGeometry width="50" height="50" relative="1" as="geometry">
            <mxPoint x="520" y="310" as="sourcePoint" />
            <mxPoint x="590" y="230" as="targetPoint" />
          </mxGeometry>
        </mxCell>
        <mxCell id="8ASr87ASi0aEGd6A7UGH-46" value="5, 1" style="rounded=1;whiteSpace=wrap;html=1;fillColor=#e1d5e7;strokeColor=#9673a6;" parent="1" vertex="1">
          <mxGeometry x="370" y="290" width="60" height="40" as="geometry" />
        </mxCell>
        <mxCell id="8ASr87ASi0aEGd6A7UGH-47" value="1, 5" style="rounded=1;whiteSpace=wrap;html=1;fillColor=#ffe6cc;strokeColor=#d79b00;" parent="1" vertex="1">
          <mxGeometry x="450" y="290" width="60" height="40" as="geometry" />
        </mxCell>
        <mxCell id="8ASr87ASi0aEGd6A7UGH-48" value="1, 0" style="rounded=1;whiteSpace=wrap;html=1;fillColor=#e1d5e7;strokeColor=#9673a6;" parent="1" vertex="1">
          <mxGeometry x="340" y="360" width="60" height="40" as="geometry" />
        </mxCell>
        <mxCell id="8ASr87ASi0aEGd6A7UGH-50" value="" style="endArrow=none;html=1;rounded=0;entryX=0.5;entryY=1;entryDx=0;entryDy=0;exitX=0.5;exitY=0;exitDx=0;exitDy=0;" parent="1" source="8ASr87ASi0aEGd6A7UGH-48" target="8ASr87ASi0aEGd6A7UGH-46" edge="1">
          <mxGeometry width="50" height="50" relative="1" as="geometry">
            <mxPoint x="520" y="560" as="sourcePoint" />
            <mxPoint x="570" y="510" as="targetPoint" />
          </mxGeometry>
        </mxCell>
        <mxCell id="8ASr87ASi0aEGd6A7UGH-51" value="" style="endArrow=none;html=1;rounded=0;entryX=0.5;entryY=1;entryDx=0;entryDy=0;exitX=0.5;exitY=0;exitDx=0;exitDy=0;" parent="1" source="8ASr87ASi0aEGd6A7UGH-46" target="8ASr87ASi0aEGd6A7UGH-39" edge="1">
          <mxGeometry width="50" height="50" relative="1" as="geometry">
            <mxPoint x="520" y="560" as="sourcePoint" />
            <mxPoint x="570" y="510" as="targetPoint" />
          </mxGeometry>
        </mxCell>
        <mxCell id="8ASr87ASi0aEGd6A7UGH-52" value="" style="endArrow=none;html=1;rounded=0;exitX=0.5;exitY=0;exitDx=0;exitDy=0;entryX=0.5;entryY=1;entryDx=0;entryDy=0;" parent="1" source="8ASr87ASi0aEGd6A7UGH-47" target="8ASr87ASi0aEGd6A7UGH-39" edge="1">
          <mxGeometry width="50" height="50" relative="1" as="geometry">
            <mxPoint x="520" y="440" as="sourcePoint" />
            <mxPoint x="640" y="290" as="targetPoint" />
          </mxGeometry>
        </mxCell>
        <mxCell id="8ASr87ASi0aEGd6A7UGH-53" value="5, 0" style="rounded=1;whiteSpace=wrap;html=1;fillColor=#ffe6cc;strokeColor=#d79b00;" parent="1" vertex="1">
          <mxGeometry x="420" y="360" width="60" height="40" as="geometry" />
        </mxCell>
        <mxCell id="8ASr87ASi0aEGd6A7UGH-54" value="" style="endArrow=none;html=1;rounded=0;entryX=0.5;entryY=1;entryDx=0;entryDy=0;exitX=0.5;exitY=0;exitDx=0;exitDy=0;" parent="1" source="8ASr87ASi0aEGd6A7UGH-53" target="8ASr87ASi0aEGd6A7UGH-47" edge="1">
          <mxGeometry width="50" height="50" relative="1" as="geometry">
            <mxPoint x="680" y="525" as="sourcePoint" />
            <mxPoint x="710" y="365" as="targetPoint" />
          </mxGeometry>
        </mxCell>
        <mxCell id="8ASr87ASi0aEGd6A7UGH-55" value="" style="endArrow=none;html=1;rounded=0;entryX=0.5;entryY=1;entryDx=0;entryDy=0;exitX=0.5;exitY=0;exitDx=0;exitDy=0;" parent="1" source="8ASr87ASi0aEGd6A7UGH-56" target="8ASr87ASi0aEGd6A7UGH-47" edge="1">
          <mxGeometry width="50" height="50" relative="1" as="geometry">
            <mxPoint x="720" y="385" as="sourcePoint" />
            <mxPoint x="710" y="365" as="targetPoint" />
          </mxGeometry>
        </mxCell>
        <mxCell id="8ASr87ASi0aEGd6A7UGH-56" value="1, 4" style="rounded=1;whiteSpace=wrap;html=1;fillColor=#ffe6cc;strokeColor=#d79b00;" parent="1" vertex="1">
          <mxGeometry x="500" y="360" width="60" height="40" as="geometry" />
        </mxCell>
        <mxCell id="8ASr87ASi0aEGd6A7UGH-57" value="1, 3" style="rounded=1;whiteSpace=wrap;html=1;fillColor=#dae8fc;strokeColor=#6c8ebf;" parent="1" vertex="1">
          <mxGeometry x="480" y="417.5" width="60" height="40" as="geometry" />
        </mxCell>
        <mxCell id="8ASr87ASi0aEGd6A7UGH-58" value="" style="endArrow=none;html=1;rounded=0;entryX=0.5;entryY=1;entryDx=0;entryDy=0;exitX=0.5;exitY=0;exitDx=0;exitDy=0;" parent="1" source="8ASr87ASi0aEGd6A7UGH-57" target="8ASr87ASi0aEGd6A7UGH-56" edge="1">
          <mxGeometry width="50" height="50" relative="1" as="geometry">
            <mxPoint x="680" y="525" as="sourcePoint" />
            <mxPoint x="720" y="425" as="targetPoint" />
          </mxGeometry>
        </mxCell>
        <mxCell id="8ASr87ASi0aEGd6A7UGH-59" value="1, 2" style="rounded=1;whiteSpace=wrap;html=1;fillColor=#dae8fc;strokeColor=#6c8ebf;" parent="1" vertex="1">
          <mxGeometry x="440" y="477.5" width="60" height="40" as="geometry" />
        </mxCell>
        <mxCell id="8ASr87ASi0aEGd6A7UGH-60" value="1, 1" style="rounded=1;whiteSpace=wrap;html=1;fillColor=#dae8fc;strokeColor=#6c8ebf;" parent="1" vertex="1">
          <mxGeometry x="390" y="537.5" width="60" height="40" as="geometry" />
        </mxCell>
        <mxCell id="8ASr87ASi0aEGd6A7UGH-61" value="1, 0" style="rounded=1;whiteSpace=wrap;html=1;fillColor=#dae8fc;strokeColor=#6c8ebf;" parent="1" vertex="1">
          <mxGeometry x="350" y="600" width="60" height="40" as="geometry" />
        </mxCell>
        <mxCell id="8ASr87ASi0aEGd6A7UGH-62" value="" style="endArrow=none;html=1;rounded=0;entryX=0.5;entryY=1;entryDx=0;entryDy=0;exitX=0.5;exitY=0;exitDx=0;exitDy=0;" parent="1" source="8ASr87ASi0aEGd6A7UGH-59" edge="1">
          <mxGeometry width="50" height="50" relative="1" as="geometry">
            <mxPoint x="810" y="647.5" as="sourcePoint" />
            <mxPoint x="510" y="457.5" as="targetPoint" />
          </mxGeometry>
        </mxCell>
        <mxCell id="8ASr87ASi0aEGd6A7UGH-63" value="" style="endArrow=none;html=1;rounded=0;entryX=0.5;entryY=1;entryDx=0;entryDy=0;exitX=0.5;exitY=0;exitDx=0;exitDy=0;" parent="1" source="8ASr87ASi0aEGd6A7UGH-60" target="8ASr87ASi0aEGd6A7UGH-59" edge="1">
          <mxGeometry width="50" height="50" relative="1" as="geometry">
            <mxPoint x="590" y="617.5" as="sourcePoint" />
            <mxPoint x="640" y="567.5" as="targetPoint" />
          </mxGeometry>
        </mxCell>
        <mxCell id="8ASr87ASi0aEGd6A7UGH-64" value="" style="endArrow=none;html=1;rounded=0;entryX=0.5;entryY=1;entryDx=0;entryDy=0;exitX=0.5;exitY=0;exitDx=0;exitDy=0;" parent="1" source="8ASr87ASi0aEGd6A7UGH-61" target="8ASr87ASi0aEGd6A7UGH-60" edge="1">
          <mxGeometry width="50" height="50" relative="1" as="geometry">
            <mxPoint x="590" y="617.5" as="sourcePoint" />
            <mxPoint x="640" y="567.5" as="targetPoint" />
          </mxGeometry>
        </mxCell>
        <mxCell id="8ASr87ASi0aEGd6A7UGH-65" value="10, 2" style="rounded=1;whiteSpace=wrap;html=1;" parent="1" vertex="1">
          <mxGeometry x="510" y="140" width="60" height="40" as="geometry" />
        </mxCell>
        <mxCell id="8ASr87ASi0aEGd6A7UGH-66" value="8, 4" style="rounded=1;whiteSpace=wrap;html=1;" parent="1" vertex="1">
          <mxGeometry x="600" y="150" width="60" height="40" as="geometry" />
        </mxCell>
        <mxCell id="8ASr87ASi0aEGd6A7UGH-67" value="5, 7" style="rounded=1;whiteSpace=wrap;html=1;" parent="1" vertex="1">
          <mxGeometry x="690" y="150" width="60" height="40" as="geometry" />
        </mxCell>
        <mxCell id="8ASr87ASi0aEGd6A7UGH-68" value="1, 11" style="rounded=1;whiteSpace=wrap;html=1;" parent="1" vertex="1">
          <mxGeometry x="890" y="70" width="60" height="40" as="geometry" />
        </mxCell>
        <mxCell id="8ASr87ASi0aEGd6A7UGH-69" value="" style="endArrow=none;html=1;rounded=0;entryX=0.5;entryY=1;entryDx=0;entryDy=0;exitX=0.5;exitY=0;exitDx=0;exitDy=0;" parent="1" source="8ASr87ASi0aEGd6A7UGH-65" target="8ASr87ASi0aEGd6A7UGH-8" edge="1">
          <mxGeometry width="50" height="50" relative="1" as="geometry">
            <mxPoint x="830" y="320" as="sourcePoint" />
            <mxPoint x="880" y="270" as="targetPoint" />
          </mxGeometry>
        </mxCell>
        <mxCell id="8ASr87ASi0aEGd6A7UGH-70" value="1, 1" style="rounded=1;whiteSpace=wrap;html=1;fillColor=#e1d5e7;strokeColor=#9673a6;" parent="1" vertex="1">
          <mxGeometry x="490" y="190" width="60" height="40" as="geometry" />
        </mxCell>
        <mxCell id="8ASr87ASi0aEGd6A7UGH-71" value="1, 0" style="rounded=1;whiteSpace=wrap;html=1;fillColor=#e1d5e7;strokeColor=#9673a6;" parent="1" vertex="1">
          <mxGeometry x="470" y="240" width="60" height="40" as="geometry" />
        </mxCell>
        <mxCell id="8ASr87ASi0aEGd6A7UGH-72" value="" style="endArrow=none;html=1;rounded=0;entryX=0.5;entryY=1;entryDx=0;entryDy=0;exitX=0.5;exitY=0;exitDx=0;exitDy=0;" parent="1" source="8ASr87ASi0aEGd6A7UGH-70" target="8ASr87ASi0aEGd6A7UGH-65" edge="1">
          <mxGeometry width="50" height="50" relative="1" as="geometry">
            <mxPoint x="950" y="290" as="sourcePoint" />
            <mxPoint x="830" y="190" as="targetPoint" />
          </mxGeometry>
        </mxCell>
        <mxCell id="8ASr87ASi0aEGd6A7UGH-73" value="" style="endArrow=none;html=1;rounded=0;entryX=0.5;entryY=1;entryDx=0;entryDy=0;exitX=0.5;exitY=0;exitDx=0;exitDy=0;" parent="1" source="8ASr87ASi0aEGd6A7UGH-71" target="8ASr87ASi0aEGd6A7UGH-70" edge="1">
          <mxGeometry width="50" height="50" relative="1" as="geometry">
            <mxPoint x="950" y="290" as="sourcePoint" />
            <mxPoint x="1000" y="240" as="targetPoint" />
          </mxGeometry>
        </mxCell>
        <mxCell id="8ASr87ASi0aEGd6A7UGH-74" value="" style="endArrow=none;html=1;rounded=0;entryX=0.5;entryY=1;entryDx=0;entryDy=0;exitX=0.5;exitY=0;exitDx=0;exitDy=0;" parent="1" source="8ASr87ASi0aEGd6A7UGH-66" target="8ASr87ASi0aEGd6A7UGH-8" edge="1">
          <mxGeometry width="50" height="50" relative="1" as="geometry">
            <mxPoint x="520" y="560" as="sourcePoint" />
            <mxPoint x="570" y="510" as="targetPoint" />
          </mxGeometry>
        </mxCell>
        <mxCell id="8ASr87ASi0aEGd6A7UGH-75" value="1, 3" style="rounded=1;whiteSpace=wrap;html=1;fillColor=#dae8fc;strokeColor=#6c8ebf;" parent="1" vertex="1">
          <mxGeometry x="580" y="202.5" width="60" height="40" as="geometry" />
        </mxCell>
        <mxCell id="8ASr87ASi0aEGd6A7UGH-76" value="" style="endArrow=none;html=1;rounded=0;entryX=0.5;entryY=1;entryDx=0;entryDy=0;exitX=0.5;exitY=0;exitDx=0;exitDy=0;" parent="1" source="8ASr87ASi0aEGd6A7UGH-75" target="8ASr87ASi0aEGd6A7UGH-66" edge="1">
          <mxGeometry width="50" height="50" relative="1" as="geometry">
            <mxPoint x="970" y="350" as="sourcePoint" />
            <mxPoint x="1010" y="250" as="targetPoint" />
          </mxGeometry>
        </mxCell>
        <mxCell id="8ASr87ASi0aEGd6A7UGH-77" value="1, 2" style="rounded=1;whiteSpace=wrap;html=1;fillColor=#dae8fc;strokeColor=#6c8ebf;" parent="1" vertex="1">
          <mxGeometry x="580" y="270" width="60" height="40" as="geometry" />
        </mxCell>
        <mxCell id="8ASr87ASi0aEGd6A7UGH-78" value="" style="endArrow=none;html=1;rounded=0;entryX=0.5;entryY=1;entryDx=0;entryDy=0;exitX=0.5;exitY=0;exitDx=0;exitDy=0;" parent="1" source="8ASr87ASi0aEGd6A7UGH-77" target="8ASr87ASi0aEGd6A7UGH-75" edge="1">
          <mxGeometry width="50" height="50" relative="1" as="geometry">
            <mxPoint x="970" y="350" as="sourcePoint" />
            <mxPoint x="1020" y="300" as="targetPoint" />
          </mxGeometry>
        </mxCell>
        <mxCell id="8ASr87ASi0aEGd6A7UGH-79" value="1, 1" style="rounded=1;whiteSpace=wrap;html=1;fillColor=#dae8fc;strokeColor=#6c8ebf;" parent="1" vertex="1">
          <mxGeometry x="580" y="330" width="60" height="40" as="geometry" />
        </mxCell>
        <mxCell id="8ASr87ASi0aEGd6A7UGH-80" value="1, 0" style="rounded=1;whiteSpace=wrap;html=1;fillColor=#dae8fc;strokeColor=#6c8ebf;" parent="1" vertex="1">
          <mxGeometry x="580" y="400" width="60" height="40" as="geometry" />
        </mxCell>
        <mxCell id="8ASr87ASi0aEGd6A7UGH-81" value="" style="endArrow=none;html=1;rounded=0;entryX=0.5;entryY=1;entryDx=0;entryDy=0;exitX=0.5;exitY=0;exitDx=0;exitDy=0;" parent="1" source="8ASr87ASi0aEGd6A7UGH-80" target="8ASr87ASi0aEGd6A7UGH-79" edge="1">
          <mxGeometry width="50" height="50" relative="1" as="geometry">
            <mxPoint x="1000" y="490" as="sourcePoint" />
            <mxPoint x="1050" y="440" as="targetPoint" />
          </mxGeometry>
        </mxCell>
        <mxCell id="8ASr87ASi0aEGd6A7UGH-82" value="" style="endArrow=none;html=1;rounded=0;entryX=0.5;entryY=1;entryDx=0;entryDy=0;exitX=0.5;exitY=0;exitDx=0;exitDy=0;" parent="1" source="8ASr87ASi0aEGd6A7UGH-79" target="8ASr87ASi0aEGd6A7UGH-77" edge="1">
          <mxGeometry width="50" height="50" relative="1" as="geometry">
            <mxPoint x="970" y="350" as="sourcePoint" />
            <mxPoint x="1020" y="300" as="targetPoint" />
          </mxGeometry>
        </mxCell>
        <mxCell id="8ASr87ASi0aEGd6A7UGH-83" value="" style="endArrow=none;html=1;rounded=0;entryX=0.5;entryY=1;entryDx=0;entryDy=0;exitX=0.5;exitY=0;exitDx=0;exitDy=0;" parent="1" source="8ASr87ASi0aEGd6A7UGH-67" target="8ASr87ASi0aEGd6A7UGH-8" edge="1">
          <mxGeometry width="50" height="50" relative="1" as="geometry">
            <mxPoint x="520" y="310" as="sourcePoint" />
            <mxPoint x="570" y="260" as="targetPoint" />
          </mxGeometry>
        </mxCell>
        <mxCell id="8ASr87ASi0aEGd6A7UGH-84" value="5, 2" style="rounded=1;whiteSpace=wrap;html=1;" parent="1" vertex="1">
          <mxGeometry x="680" y="210" width="60" height="40" as="geometry" />
        </mxCell>
        <mxCell id="8ASr87ASi0aEGd6A7UGH-85" value="1, 6" style="rounded=1;whiteSpace=wrap;html=1;" parent="1" vertex="1">
          <mxGeometry x="760" y="210" width="60" height="40" as="geometry" />
        </mxCell>
        <mxCell id="8ASr87ASi0aEGd6A7UGH-86" value="" style="endArrow=none;html=1;rounded=0;entryX=0.5;entryY=1;entryDx=0;entryDy=0;exitX=0.5;exitY=0;exitDx=0;exitDy=0;" parent="1" source="8ASr87ASi0aEGd6A7UGH-84" target="8ASr87ASi0aEGd6A7UGH-67" edge="1">
          <mxGeometry width="50" height="50" relative="1" as="geometry">
            <mxPoint x="970" y="342.5" as="sourcePoint" />
            <mxPoint x="1040" y="262.5" as="targetPoint" />
          </mxGeometry>
        </mxCell>
        <mxCell id="8ASr87ASi0aEGd6A7UGH-87" value="1, 1" style="rounded=1;whiteSpace=wrap;html=1;fillColor=#e1d5e7;strokeColor=#9673a6;" parent="1" vertex="1">
          <mxGeometry x="680" y="282.5" width="60" height="40" as="geometry" />
        </mxCell>
        <mxCell id="8ASr87ASi0aEGd6A7UGH-88" value="1, 0" style="rounded=1;whiteSpace=wrap;html=1;fillColor=#e1d5e7;strokeColor=#9673a6;" parent="1" vertex="1">
          <mxGeometry x="680" y="362.5" width="60" height="40" as="geometry" />
        </mxCell>
        <mxCell id="8ASr87ASi0aEGd6A7UGH-89" value="" style="endArrow=none;html=1;rounded=0;entryX=0.5;entryY=1;entryDx=0;entryDy=0;exitX=0.5;exitY=0;exitDx=0;exitDy=0;" parent="1" source="8ASr87ASi0aEGd6A7UGH-87" target="8ASr87ASi0aEGd6A7UGH-84" edge="1">
          <mxGeometry width="50" height="50" relative="1" as="geometry">
            <mxPoint x="1120" y="442.5" as="sourcePoint" />
            <mxPoint x="1000" y="342.5" as="targetPoint" />
          </mxGeometry>
        </mxCell>
        <mxCell id="8ASr87ASi0aEGd6A7UGH-90" value="" style="endArrow=none;html=1;rounded=0;entryX=0.5;entryY=1;entryDx=0;entryDy=0;exitX=0.5;exitY=0;exitDx=0;exitDy=0;" parent="1" source="8ASr87ASi0aEGd6A7UGH-88" target="8ASr87ASi0aEGd6A7UGH-87" edge="1">
          <mxGeometry width="50" height="50" relative="1" as="geometry">
            <mxPoint x="1120" y="442.5" as="sourcePoint" />
            <mxPoint x="1170" y="392.5" as="targetPoint" />
          </mxGeometry>
        </mxCell>
        <mxCell id="8ASr87ASi0aEGd6A7UGH-91" value="" style="endArrow=none;html=1;rounded=0;exitX=0.5;exitY=0;exitDx=0;exitDy=0;entryX=0.5;entryY=1;entryDx=0;entryDy=0;" parent="1" source="8ASr87ASi0aEGd6A7UGH-85" target="8ASr87ASi0aEGd6A7UGH-67" edge="1">
          <mxGeometry width="50" height="50" relative="1" as="geometry">
            <mxPoint x="970" y="342.5" as="sourcePoint" />
            <mxPoint x="960" y="180" as="targetPoint" />
          </mxGeometry>
        </mxCell>
        <mxCell id="8ASr87ASi0aEGd6A7UGH-92" value="5, 1" style="rounded=1;whiteSpace=wrap;html=1;fillColor=#e1d5e7;strokeColor=#9673a6;" parent="1" vertex="1">
          <mxGeometry x="760" y="280" width="60" height="40" as="geometry" />
        </mxCell>
        <mxCell id="8ASr87ASi0aEGd6A7UGH-93" value="1, 5" style="rounded=1;whiteSpace=wrap;html=1;fillColor=#ffe6cc;strokeColor=#d79b00;" parent="1" vertex="1">
          <mxGeometry x="840" y="282.5" width="60" height="40" as="geometry" />
        </mxCell>
        <mxCell id="8ASr87ASi0aEGd6A7UGH-94" value="1, 0" style="rounded=1;whiteSpace=wrap;html=1;fillColor=#e1d5e7;strokeColor=#9673a6;" parent="1" vertex="1">
          <mxGeometry x="760" y="382.5" width="60" height="40" as="geometry" />
        </mxCell>
        <mxCell id="8ASr87ASi0aEGd6A7UGH-95" value="" style="endArrow=none;html=1;rounded=0;entryX=0.5;entryY=1;entryDx=0;entryDy=0;exitX=0.5;exitY=0;exitDx=0;exitDy=0;" parent="1" source="8ASr87ASi0aEGd6A7UGH-94" target="8ASr87ASi0aEGd6A7UGH-92" edge="1">
          <mxGeometry width="50" height="50" relative="1" as="geometry">
            <mxPoint x="970" y="592.5" as="sourcePoint" />
            <mxPoint x="1020" y="542.5" as="targetPoint" />
          </mxGeometry>
        </mxCell>
        <mxCell id="8ASr87ASi0aEGd6A7UGH-96" value="" style="endArrow=none;html=1;rounded=0;entryX=0.5;entryY=1;entryDx=0;entryDy=0;exitX=0.5;exitY=0;exitDx=0;exitDy=0;" parent="1" source="8ASr87ASi0aEGd6A7UGH-92" target="8ASr87ASi0aEGd6A7UGH-85" edge="1">
          <mxGeometry width="50" height="50" relative="1" as="geometry">
            <mxPoint x="970" y="592.5" as="sourcePoint" />
            <mxPoint x="1020" y="542.5" as="targetPoint" />
          </mxGeometry>
        </mxCell>
        <mxCell id="8ASr87ASi0aEGd6A7UGH-97" value="" style="endArrow=none;html=1;rounded=0;exitX=0.5;exitY=0;exitDx=0;exitDy=0;entryX=0.5;entryY=1;entryDx=0;entryDy=0;" parent="1" source="8ASr87ASi0aEGd6A7UGH-93" target="8ASr87ASi0aEGd6A7UGH-85" edge="1">
          <mxGeometry width="50" height="50" relative="1" as="geometry">
            <mxPoint x="970" y="472.5" as="sourcePoint" />
            <mxPoint x="1090" y="322.5" as="targetPoint" />
          </mxGeometry>
        </mxCell>
        <mxCell id="8ASr87ASi0aEGd6A7UGH-98" value="5, 0" style="rounded=1;whiteSpace=wrap;html=1;fillColor=#ffe6cc;strokeColor=#d79b00;" parent="1" vertex="1">
          <mxGeometry x="810" y="337.5" width="60" height="40" as="geometry" />
        </mxCell>
        <mxCell id="8ASr87ASi0aEGd6A7UGH-99" value="" style="endArrow=none;html=1;rounded=0;entryX=0.5;entryY=1;entryDx=0;entryDy=0;exitX=0.5;exitY=0;exitDx=0;exitDy=0;" parent="1" source="8ASr87ASi0aEGd6A7UGH-98" target="8ASr87ASi0aEGd6A7UGH-93" edge="1">
          <mxGeometry width="50" height="50" relative="1" as="geometry">
            <mxPoint x="1130" y="557.5" as="sourcePoint" />
            <mxPoint x="1160" y="397.5" as="targetPoint" />
          </mxGeometry>
        </mxCell>
        <mxCell id="8ASr87ASi0aEGd6A7UGH-100" value="" style="endArrow=none;html=1;rounded=0;entryX=0.5;entryY=1;entryDx=0;entryDy=0;exitX=0.5;exitY=0;exitDx=0;exitDy=0;" parent="1" source="8ASr87ASi0aEGd6A7UGH-101" target="8ASr87ASi0aEGd6A7UGH-93" edge="1">
          <mxGeometry width="50" height="50" relative="1" as="geometry">
            <mxPoint x="1170" y="417.5" as="sourcePoint" />
            <mxPoint x="1160" y="397.5" as="targetPoint" />
          </mxGeometry>
        </mxCell>
        <mxCell id="8ASr87ASi0aEGd6A7UGH-101" value="1, 4" style="rounded=1;whiteSpace=wrap;html=1;fillColor=#ffe6cc;strokeColor=#d79b00;" parent="1" vertex="1">
          <mxGeometry x="880" y="342.5" width="60" height="40" as="geometry" />
        </mxCell>
        <mxCell id="8ASr87ASi0aEGd6A7UGH-102" value="1, 3" style="rounded=1;whiteSpace=wrap;html=1;fillColor=#dae8fc;strokeColor=#6c8ebf;" parent="1" vertex="1">
          <mxGeometry x="860" y="402.5" width="60" height="40" as="geometry" />
        </mxCell>
        <mxCell id="8ASr87ASi0aEGd6A7UGH-103" value="" style="endArrow=none;html=1;rounded=0;entryX=0.5;entryY=1;entryDx=0;entryDy=0;exitX=0.5;exitY=0;exitDx=0;exitDy=0;" parent="1" source="8ASr87ASi0aEGd6A7UGH-102" target="8ASr87ASi0aEGd6A7UGH-101" edge="1">
          <mxGeometry width="50" height="50" relative="1" as="geometry">
            <mxPoint x="1130" y="557.5" as="sourcePoint" />
            <mxPoint x="1170" y="457.5" as="targetPoint" />
          </mxGeometry>
        </mxCell>
        <mxCell id="8ASr87ASi0aEGd6A7UGH-104" value="1, 2" style="rounded=1;whiteSpace=wrap;html=1;fillColor=#dae8fc;strokeColor=#6c8ebf;" parent="1" vertex="1">
          <mxGeometry x="820" y="462.5" width="60" height="40" as="geometry" />
        </mxCell>
        <mxCell id="8ASr87ASi0aEGd6A7UGH-105" value="1, 1" style="rounded=1;whiteSpace=wrap;html=1;fillColor=#dae8fc;strokeColor=#6c8ebf;" parent="1" vertex="1">
          <mxGeometry x="770" y="527.5" width="60" height="40" as="geometry" />
        </mxCell>
        <mxCell id="8ASr87ASi0aEGd6A7UGH-106" value="1, 0" style="rounded=1;whiteSpace=wrap;html=1;fillColor=#dae8fc;strokeColor=#6c8ebf;" parent="1" vertex="1">
          <mxGeometry x="720" y="587.5" width="60" height="40" as="geometry" />
        </mxCell>
        <mxCell id="8ASr87ASi0aEGd6A7UGH-107" value="" style="endArrow=none;html=1;rounded=0;entryX=0.5;entryY=1;entryDx=0;entryDy=0;exitX=0.5;exitY=0;exitDx=0;exitDy=0;" parent="1" source="8ASr87ASi0aEGd6A7UGH-104" edge="1">
          <mxGeometry width="50" height="50" relative="1" as="geometry">
            <mxPoint x="1190" y="632.5" as="sourcePoint" />
            <mxPoint x="890" y="442.5" as="targetPoint" />
          </mxGeometry>
        </mxCell>
        <mxCell id="8ASr87ASi0aEGd6A7UGH-108" value="" style="endArrow=none;html=1;rounded=0;entryX=0.5;entryY=1;entryDx=0;entryDy=0;exitX=0.5;exitY=0;exitDx=0;exitDy=0;" parent="1" source="8ASr87ASi0aEGd6A7UGH-105" target="8ASr87ASi0aEGd6A7UGH-104" edge="1">
          <mxGeometry width="50" height="50" relative="1" as="geometry">
            <mxPoint x="980" y="627.5" as="sourcePoint" />
            <mxPoint x="860" y="527.5" as="targetPoint" />
          </mxGeometry>
        </mxCell>
        <mxCell id="8ASr87ASi0aEGd6A7UGH-109" value="" style="endArrow=none;html=1;rounded=0;entryX=0.5;entryY=1;entryDx=0;entryDy=0;exitX=0.5;exitY=0;exitDx=0;exitDy=0;" parent="1" source="8ASr87ASi0aEGd6A7UGH-106" target="8ASr87ASi0aEGd6A7UGH-105" edge="1">
          <mxGeometry width="50" height="50" relative="1" as="geometry">
            <mxPoint x="980" y="627.5" as="sourcePoint" />
            <mxPoint x="1030" y="577.5" as="targetPoint" />
          </mxGeometry>
        </mxCell>
        <mxCell id="8ASr87ASi0aEGd6A7UGH-110" value="" style="endArrow=none;html=1;rounded=0;entryX=1;entryY=0.5;entryDx=0;entryDy=0;exitX=0;exitY=0.5;exitDx=0;exitDy=0;" parent="1" source="8ASr87ASi0aEGd6A7UGH-68" target="8ASr87ASi0aEGd6A7UGH-8" edge="1">
          <mxGeometry width="50" height="50" relative="1" as="geometry">
            <mxPoint x="520" y="680" as="sourcePoint" />
            <mxPoint x="570" y="630" as="targetPoint" />
          </mxGeometry>
        </mxCell>
        <mxCell id="8ASr87ASi0aEGd6A7UGH-111" value="10, 1" style="rounded=1;whiteSpace=wrap;html=1;" parent="1" vertex="1">
          <mxGeometry x="820" y="130" width="60" height="40" as="geometry" />
        </mxCell>
        <mxCell id="8ASr87ASi0aEGd6A7UGH-112" value="8, 3" style="rounded=1;whiteSpace=wrap;html=1;" parent="1" vertex="1">
          <mxGeometry x="890" y="140" width="60" height="40" as="geometry" />
        </mxCell>
        <mxCell id="8ASr87ASi0aEGd6A7UGH-113" value="5, 6" style="rounded=1;whiteSpace=wrap;html=1;" parent="1" vertex="1">
          <mxGeometry x="970" y="140" width="60" height="40" as="geometry" />
        </mxCell>
        <mxCell id="8ASr87ASi0aEGd6A7UGH-114" value="1, 10" style="rounded=1;whiteSpace=wrap;html=1;" parent="1" vertex="1">
          <mxGeometry x="990" y="70" width="60" height="40" as="geometry" />
        </mxCell>
        <mxCell id="8ASr87ASi0aEGd6A7UGH-115" value="" style="endArrow=none;html=1;rounded=0;entryX=0.5;entryY=1;entryDx=0;entryDy=0;exitX=0.5;exitY=0;exitDx=0;exitDy=0;" parent="1" source="8ASr87ASi0aEGd6A7UGH-111" target="8ASr87ASi0aEGd6A7UGH-68" edge="1">
          <mxGeometry width="50" height="50" relative="1" as="geometry">
            <mxPoint x="520" y="310" as="sourcePoint" />
            <mxPoint x="570" y="260" as="targetPoint" />
          </mxGeometry>
        </mxCell>
        <mxCell id="8ASr87ASi0aEGd6A7UGH-116" value="" style="endArrow=none;html=1;rounded=0;entryX=0.5;entryY=1;entryDx=0;entryDy=0;exitX=0.5;exitY=0;exitDx=0;exitDy=0;" parent="1" source="8ASr87ASi0aEGd6A7UGH-112" target="8ASr87ASi0aEGd6A7UGH-68" edge="1">
          <mxGeometry width="50" height="50" relative="1" as="geometry">
            <mxPoint x="520" y="310" as="sourcePoint" />
            <mxPoint x="570" y="260" as="targetPoint" />
          </mxGeometry>
        </mxCell>
        <mxCell id="8ASr87ASi0aEGd6A7UGH-117" value="" style="endArrow=none;html=1;rounded=0;entryX=0.5;entryY=1;entryDx=0;entryDy=0;exitX=0.5;exitY=0;exitDx=0;exitDy=0;" parent="1" source="8ASr87ASi0aEGd6A7UGH-113" target="8ASr87ASi0aEGd6A7UGH-68" edge="1">
          <mxGeometry width="50" height="50" relative="1" as="geometry">
            <mxPoint x="520" y="310" as="sourcePoint" />
            <mxPoint x="570" y="260" as="targetPoint" />
          </mxGeometry>
        </mxCell>
        <mxCell id="8ASr87ASi0aEGd6A7UGH-118" value="" style="endArrow=none;html=1;rounded=0;entryX=1;entryY=0.5;entryDx=0;entryDy=0;exitX=0;exitY=0.5;exitDx=0;exitDy=0;" parent="1" source="8ASr87ASi0aEGd6A7UGH-114" target="8ASr87ASi0aEGd6A7UGH-68" edge="1">
          <mxGeometry width="50" height="50" relative="1" as="geometry">
            <mxPoint x="520" y="310" as="sourcePoint" />
            <mxPoint x="570" y="260" as="targetPoint" />
          </mxGeometry>
        </mxCell>
        <mxCell id="PTaGd7czIobwu4xQl3tN-1" value="8, 0" style="rounded=1;whiteSpace=wrap;html=1;" vertex="1" parent="1">
          <mxGeometry x="370" y="110" width="60" height="40" as="geometry" />
        </mxCell>
        <mxCell id="PTaGd7czIobwu4xQl3tN-2" value="" style="endArrow=none;html=1;rounded=0;entryX=1;entryY=0.5;entryDx=0;entryDy=0;exitX=0;exitY=0.5;exitDx=0;exitDy=0;" edge="1" parent="1" source="PTaGd7czIobwu4xQl3tN-1" target="8ASr87ASi0aEGd6A7UGH-7">
          <mxGeometry width="50" height="50" relative="1" as="geometry">
            <mxPoint x="520" y="370" as="sourcePoint" />
            <mxPoint x="570" y="320" as="targetPoint" />
          </mxGeometry>
        </mxCell>
        <mxCell id="PTaGd7czIobwu4xQl3tN-3" value="1, 5, 8, 10" style="rounded=0;whiteSpace=wrap;html=1;" vertex="1" parent="1">
          <mxGeometry x="680" y="10" width="70" height="30" as="geometry" />
        </mxCell>
      </root>
    </mxGraphModel>
  </diagram>
</mxfile>
